HIERARCHY
ROOT hip
{
  OFFSET 0.0 0.0 0.0
  CHANNELS 6 Xposition Yposition Zposition Zrotation Yrotation Xrotation
  JOINT torso
  {
    OFFSET 0.0 0.0 0.0
    CHANNELS 3 Zrotation Xrotation Yrotation
    JOINT neck
    {
      OFFSET -31.42098999999993 328.8025209999999 74.3554680000002
      CHANNELS 3 Zrotation Xrotation Yrotation
      JOINT head
      {
        OFFSET 3.3519900000001144 303.81732099999994 206.53942900000015
        CHANNELS 3 Zrotation Xrotation Yrotation
        End Site
        {
          OFFSET 0.0 0.0 0.0
        }
      }
    }
    JOINT left_collar
    {
      OFFSET -31.42098999999993 328.8025209999999 74.3554680000002
      CHANNELS 3 Zrotation Xrotation Yrotation
      JOINT left_upper_arm
      {
        OFFSET -124.490479 -8.162841999999841 8.226441000000023
        CHANNELS 3 Zrotation Xrotation Yrotation
        JOINT left_forearm
        {
          OFFSET -253.595764 -1.5758060000000569 105.0729980000001
          CHANNELS 3 Zrotation Xrotation Yrotation
          JOINT left_hand
          {
            OFFSET -269.48803699999996 0.1478270000000066 -55.346191999999974
            CHANNELS 3 Zrotation Xrotation Yrotation
            End Site
            {
              OFFSET 0.0 0.0 0.0
            }
          }
        }
      }
    }
    JOINT right_collar
    {
      OFFSET -31.42098999999993 328.8025209999999 74.3554680000002
      CHANNELS 3 Zrotation Xrotation Yrotation
      JOINT right_upper_arm
      {
        OFFSET 162.02484099999998 0.46441600000002836 2.2303470000001653
        CHANNELS 3 Zrotation Xrotation Yrotation
        JOINT right_forearm
        {
          OFFSET 240.01246700000004 -25.835875999999985 121.34179699999959
          CHANNELS 3 Zrotation Xrotation Yrotation
          JOINT right_hand
          {
            OFFSET 252.48539699999992 18.910399999999868 -67.53466800000001
            CHANNELS 3 Zrotation Xrotation Yrotation
            End Site
            {
              OFFSET 0.0 0.0 0.0
            }
          }
        }
      }
    }
  }
}
MOTION
Frames: 11
Frame Time: 0.01
-223.70692399999976 201.28427099999973 1327.43457 5.038767025978591 -4.574340553499839 -8.609612821721878 0.22665717933923535 0.6763624158012161 0.014739146319894814 -6.090339748181647 -3.693568188445217 4.288008671077959 0.0 0.0 0.0 8.202643574827304 -1.7305372072817413 16.50914497370205 28.86551234361384 19.6286976410961 -22.299360323210852 28.657268351522838 -0.6963053102406441 -20.528556127297197 0.0 0.0 0.0 -0.10280965726523796 -0.0022677926471074456 1.8699437570598065 -44.91234184050398 26.724262196605274 3.218242425988189 -49.17693856335255 -8.371949601563724 13.243411070830643 0.0 0.0 0.0
-223.69734199999976 201.10816999999975 1327.898804 5.0204695891512925 -4.758420551788295 -8.469248093446856 0.29087722202822464 0.7479823781447609 0.007612229178470245 -6.064624754112793 -3.601514678041371 4.266559491017431 0.0 0.0 0.0 8.17611821802341 -1.7106284903336961 16.3804275662141 28.79720218433218 19.627318913598767 -22.423905763891195 28.611873040830467 -0.6823530847178776 -20.578915868892288 0.0 0.0 0.0 -0.14393496974413608 -0.0008667852646020807 1.7684835600423718 -44.77377427025136 26.56418510045465 3.1111484066634567 -49.31488128631879 -8.229143702937538 13.676910732706197 0.0 0.0 0.0
-223.71957399999977 201.01095599999974 1328.324951 5.118620759275954 -4.7727096035660965 -8.530836353004137 0.1976306417129697 0.7012603953264612 0.023568274798630377 -6.077173157080581 -3.5692971276025567 4.274097868578576 0.0 0.0 0.0 8.148343506330516 -1.7157921176421755 16.433736702503122 28.783573734616148 19.650940423107382 -22.513636054396514 28.58727837849465 -0.6745072923233111 -20.607397740571113 0.0 0.0 0.0 -0.14149561408423775 -0.0010895647139905474 1.8613124453346173 -44.731801578159015 26.581626535493726 3.1811650221626517 -49.281399066995895 -8.196452637043045 13.748537112238687 0.0 0.0 0.0
-223.79716499999978 200.88172899999975 1328.796509 5.216039561946605 -4.966235239535086 -8.395385184508672 0.14688521810209798 0.774865408355808 0.0418945039797993 -6.055610315267832 -3.466133063008775 4.255139331565817 0.0 0.0 0.0 8.179635754522545 -1.701311915812339 16.31100787990977 28.615151685219768 19.61077798963559 -22.722696618191083 28.54249803830962 -0.6596254476781501 -20.661738892012814 0.0 0.0 0.0 -0.19159009518252473 0.0005929968367513718 1.7115908755490405 -44.677477256032496 26.607920995486992 3.2776734835385333 -49.24156592083437 -8.155726023539728 13.838746860651755 0.0 0.0 0.0
-223.58576999999977 200.77862499999975 1329.560791 4.552364023867607 -4.355388205890031 -9.032684510789572 0.7206210328283512 0.18983873192645292 -0.14376851557665782 -6.339125071769084 -3.5601359974260007 4.456603171190604 0.0 0.0 0.0 8.279100056166232 -1.835213989874711 17.217263780588763 28.564316413572804 19.641409230622603 -22.90255502732719 28.455657526869274 -0.6464572747420088 -20.70563888393992 0.0 0.0 0.0 0.006737647635223574 -0.0077999944845136395 2.6335377527798136 -44.62827216194712 26.54924477172059 3.236698397561626 -49.30575288058162 -8.1011808983049 14.008479128393304 0.0 0.0 0.0
-223.88270599999979 200.65010099999975 1329.84314 5.167689950728191 -4.956367408602751 -8.474080587292697 0.1840919818945832 0.6112584573107624 0.01778912347566147 -6.085915896699278 -3.397038277727686 4.273650184836057 0.0 0.0 0.0 8.19039706245577 -1.7142852987465165 16.39872900077755 28.538063939602353 19.62149836842713 -22.898276351148407 28.424106509628466 -0.631593734491256 -20.76152760338026 0.0 0.0 0.0 -0.11372860377384239 -0.0020011258702594265 1.9029600593418912 -44.58774680504177 26.592167555240493 3.3451348536781973 -49.20434361279684 -8.062161601279717 14.069153350273405 0.0 0.0 0.0
-223.89137299999976 200.56109599999974 1330.385254 5.085834027940363 -4.861451649538515 -8.57444525987073 0.2641052197581427 0.44798232710724556 -0.015899720245896285 -6.157192149869801 -3.3676109761370747 4.322218964641816 0.0 0.0 0.0 8.180198041917546 -1.7458940015888182 16.633213351859595 28.497604458356346 19.67633518252852 -23.124637696965394 28.3629177330739 -0.6302152541162398 -20.761474996883873 0.0 0.0 0.0 -0.06942059280529103 -0.003762076292985609 2.0863482314684476 -44.55692461505761 26.57917462139343 3.3565211078603503 -49.22765518284577 -8.00572065744571 14.227070566754373 0.0 0.0 0.0
-224.01699799999977 200.49781799999974 1330.814575 5.291918490358564 -5.20430087372449 -8.50087505643395 0.08313576333667215 0.6974595197065006 0.04842705173716402 -6.114099985722133 -3.3036998850036845 4.289735303871436 0.0 0.0 0.0 8.192543130170531 -1.7204951528789514 16.44239508935591 28.38883600413679 19.627437065441253 -23.199340735786734 28.340179891740803 -0.6107920890912572 -20.836490843409234 0.0 0.0 0.0 -0.09438827423206676 -0.0026888282521174626 1.951950105125307 -44.50503471319511 26.602027932227905 3.4454791237290334 -49.19010096660326 -7.975877803706902 14.290278100256725 0.0 0.0 0.0
-224.03684999999976 200.40278599999974 1331.331909 5.2620407835136715 -5.292580250878285 -8.56679594847478 0.10793662024968592 0.7101970604309175 0.04419470344955681 -6.142954899183154 -3.2635403504814047 4.308301960885438 0.0 0.0 0.0 8.239246347943187 -1.7357956626209563 16.525940362945438 28.283664423768062 19.609374626376933 -23.35190457143155 28.28153179484609 -0.6001079948612494 -20.87383569377955 0.0 0.0 0.0 -0.07500409017854143 -0.003466867382975313 2.0336548254614755 -44.45020798943573 26.619639418552595 3.5293858295148026 -49.17357444931007 -7.92843082611617 14.408476863770224 0.0 0.0 0.0
-224.05184899999978 200.34501599999973 1331.864258 5.174223948138768 -5.369477396505773 -8.604282194869134 0.19923905980552245 0.7126700249398151 0.02432634906557077 -6.178333844655687 -3.2324007327006687 4.331749628693366 0.0 0.0 0.0 8.21431701948533 -1.7424594182452018 16.588456784818323 28.247373520680238 19.61753891032457 -23.44410997981366 28.242021494996415 -0.5913960541561186 -20.905116823090697 0.0 0.0 0.0 -0.018347651872503395 -0.005494373300857042 2.1228493016546546 -44.45149087840655 26.626210550780776 3.5383168364420787 -51.788691230326286 -7.43383163846095 16.624758983399378 0.0 0.0 0.0
-224.04447899999977 200.24941999999973 1332.451416 5.202564601141533 -5.498742786925017 -8.50810997904798 0.20228926770795955 0.7127110883501616 0.023658551234216934 -6.176212412006318 -3.1214062860031833 4.325991553742751 0.0 0.0 0.0 8.222931928301973 -1.731646552904243 16.505440665569456 28.142833746725678 19.590167599743943 -23.57108536162413 28.183165291708352 -0.570259113071565 -20.984450521459877 0.0 0.0 0.0 -0.08262542619575049 -0.0031326215207448556 1.9898668926576908 -44.40589156383546 26.698871614885803 3.698699726792983 -51.712691187815366 -7.394483704527939 16.69710052505071 0.0 0.0 0.0
